<?xml version="1.0" encoding="UTF-8" standalone="no"?>
<!-- Created with Inkscape (http://www.inkscape.org/) -->

<svg
   width="1023.9999"
   height="1024"
   viewBox="0 0 270.93333 270.93334"
   version="1.1"
   id="svg8"
   enable-background="new"
   sodipodi:docname="io.github.ravener.Oto.svg"
   inkscape:version="1.2.2 (b0a8486541, 2022-12-01)"
   xmlns:inkscape="http://www.inkscape.org/namespaces/inkscape"
   xmlns:sodipodi="http://sodipodi.sourceforge.net/DTD/sodipodi-0.dtd"
   xmlns:xlink="http://www.w3.org/1999/xlink"
   xmlns="http://www.w3.org/2000/svg"
   xmlns:svg="http://www.w3.org/2000/svg"
   xmlns:rdf="http://www.w3.org/1999/02/22-rdf-syntax-ns#"
   xmlns:cc="http://creativecommons.org/ns#"
   xmlns:dc="http://purl.org/dc/elements/1.1/">
  <sodipodi:namedview
     id="namedview103"
     pagecolor="#ffffff"
     bordercolor="#000000"
     borderopacity="0.25"
     inkscape:showpageshadow="2"
     inkscape:pageopacity="0.0"
     inkscape:pagecheckerboard="0"
     inkscape:deskcolor="#d1d1d1"
     showgrid="false"
     inkscape:zoom="0.79980469"
     inkscape:cx="512.62515"
     inkscape:cy="513.25031"
     inkscape:window-width="1920"
     inkscape:window-height="999"
     inkscape:window-x="0"
     inkscape:window-y="0"
     inkscape:window-maximized="1"
     inkscape:current-layer="layer2" />
  <defs
     id="defs2">
    <clipPath
       id="SVGID_2_">
      <use
         height="100%"
         width="100%"
         y="0"
         x="0"
         xlink:href="#SVGID_1_"
         style="overflow:visible"
         id="use10" />
    </clipPath>
    <circle
       id="SVGID_1_"
       class="st1"
       cx="175"
       cy="175"
       r="150" />
    <circle
       r="150"
       cy="175"
       cx="175"
       class="st1"
       id="SVGID_1_-7" />
    <clipPath
       clipPathUnits="userSpaceOnUse"
       id="clipPath909">
      <path
         style="opacity:1;fill:#0000ff;fill-opacity:1;stroke:none;stroke-width:0;stroke-linejoin:round;stroke-miterlimit:4;stroke-dasharray:none;stroke-opacity:1;paint-order:stroke markers fill"
         d="M 133.86734,26.436154 66.906618,65.095948 80.809035,89.175251 53.578039,136.3402 H 25.773192 v 77.3196 h 27.804847 l 27.230235,47.16419 -13.902418,24.08006 66.961484,38.65979 13.90243,-24.07932 h 54.46122 l 13.90242,24.07932 66.96074,-38.65979 -13.90243,-24.08006 27.23024,-47.16419 h 27.80485 v -77.3196 h -27.80485 l -27.231,-47.164949 13.90243,-24.079303 -66.96073,-38.659794 -13.90242,24.079314 h -54.46047 z"
         id="path911" />
    </clipPath>
    <clipPath
       clipPathUnits="userSpaceOnUse"
       id="clipPath913">
      <path
         style="opacity:1;fill:#0000ff;fill-opacity:1;stroke:none;stroke-width:0;stroke-linejoin:round;stroke-miterlimit:4;stroke-dasharray:none;stroke-opacity:1;paint-order:stroke markers fill"
         d="M 135.59491,32.675838 71.446542,69.71192 84.765057,92.779891 58.677764,137.96391 H 32.040721 v 74.07217 h 26.637043 l 26.086564,45.1833 -13.318516,23.0687 64.149098,37.03608 13.31853,-23.06799 h 52.17384 l 13.31853,23.06799 64.14838,-37.03608 -13.31853,-23.0687 26.08658,-45.1833 h 26.63704 V 137.96391 H 291.32224 L 265.23493,92.779891 278.55346,69.71192 214.40508,32.675838 201.08657,55.743821 h -52.17313 z"
         id="path915" />
    </clipPath>
    <filter
       style="color-interpolation-filters:sRGB"
       id="filter960"
       x="-0.0082163267"
       width="1.0164327"
       y="-0.0085920677"
       height="1.0171841">
      <feGaussianBlur
         stdDeviation="0.76811308"
         id="feGaussianBlur962" />
    </filter>
    <filter
       style="color-interpolation-filters:sRGB"
       id="filter7379"
       x="-0.062883013"
       y="-0.14769397"
       width="1.1781685"
       height="1.4184662">
      <feFlood
         flood-opacity="0.498039"
         flood-color="rgb(0,0,0)"
         result="flood"
         id="feFlood7369" />
      <feComposite
         in="flood"
         in2="SourceGraphic"
         operator="in"
         result="composite1"
         id="feComposite7371" />
      <feGaussianBlur
         in="composite1"
         stdDeviation="3"
         result="blur"
         id="feGaussianBlur7373" />
      <feOffset
         dx="6"
         dy="6"
         result="offset"
         id="feOffset7375" />
      <feComposite
         in="SourceGraphic"
         in2="offset"
         operator="over"
         result="composite2"
         id="feComposite7377" />
    </filter>
  </defs>
  <metadata
     id="metadata5">
    <rdf:RDF>
      <cc:Work
         rdf:about="">
        <dc:format>image/svg+xml</dc:format>
        <dc:type
           rdf:resource="http://purl.org/dc/dcmitype/StillImage" />
      </cc:Work>
    </rdf:RDF>
  </metadata>
  <g
     id="layer1"
     style="display:inline">
    <g
       id="Cookie"
       transform="matrix(0.71439343,0,0,0.71439343,10.447817,10.447817)"
       style="fill:#688dff;fill-opacity:1"
       clip-path="url(#clipPath913)">
      <circle
         style="fill:#688dff;fill-opacity:1"
         class="st0"
         cx="175"
         cy="175"
         r="143.7"
         id="circle1283" />
    </g>
    <g
       id="Triangles"
       transform="matrix(0.68438889,0,0,0.68438889,15.698611,15.698611)"
       style="opacity:0.7"
       clip-path="url(#clipPath909)">
      <g
         style="opacity:0.15"
         class="st1"
         id="g1424">
        <defs
           id="defs1287" />
        <clipPath
           id="SVGID_2_-0">
          <use
             height="100%"
             width="100%"
             y="0"
             x="0"
             xlink:href="#SVGID_1_-7"
             style="overflow:visible"
             id="use1289" />
        </clipPath>
        <g
           class="st2"
           clip-path="url(#SVGID_2_)"
           id="g1422">
          <polygon
             style="fill:#f1f1f2"
             class="st3"
             points="-81.2,336.9 175,-106.9 431.2,336.9 "
             id="polygon1292" />
          <polygon
             style="fill:#231f20"
             class="st4"
             points="68.8,443.7 325,0 581.2,443.7 "
             id="polygon1294" />
          <polygon
             style="fill:#808184"
             class="st5"
             points="-409.8,363.4 -153.6,-80.3 102.6,363.4 "
             id="polygon1296" />
          <polygon
             style="fill:#929497"
             class="st6"
             points="61.4,158.2 317.6,-285.6 573.8,158.2 "
             id="polygon1298" />
          <polygon
             style="fill:#636466"
             class="st7"
             points="-222.4,380 33.8,-63.7 290,380 "
             id="polygon1300" />
          <polygon
             style="fill:#59595c"
             class="st8"
             points="-100.1,646.9 156.1,203.1 412.3,646.9 "
             id="polygon1302" />
          <polygon
             style="fill:#a7a8ab"
             class="st9"
             points="-164.9,147.2 -67.6,-21.3 29.7,147.2 "
             id="polygon1304" />
          <polygon
             style="fill:#a7a8ab"
             class="st9"
             points="-83.4,523.8 13.9,355.3 111.2,523.8 "
             id="polygon1306" />
          <polygon
             style="fill:#6d6e70"
             class="st10"
             points="134.3,220.8 231.6,52.3 328.9,220.8 "
             id="polygon1308" />
          <polygon
             style="fill:#a7a8ab"
             class="st9"
             points="298.7,485.7 396,317.2 493.2,485.7 "
             id="polygon1310" />
          <polygon
             style="fill:#59595c"
             class="st8"
             points="108.4,621.4 157,537.2 205.7,621.4 "
             id="polygon1312" />
          <polygon
             style="fill:#221f1f"
             class="st11"
             points="278.7,305.9 327.3,221.7 375.9,305.9 "
             id="polygon1314" />
          <polygon
             style="fill:#221f1f"
             class="st11"
             points="46.2,400 143.5,231.5 240.8,400 "
             id="polygon1316" />
          <polygon
             style="fill:#808184"
             class="st5"
             points="158.8,-86.6 108.8,-86.6 36.5,38.6 231.1,38.6 "
             id="polygon1318" />
          <polygon
             style="fill:#808184"
             class="st5"
             points="372,-86.6 322,-86.6 298.4,-45.7 395.7,-45.7 "
             id="polygon1320" />
          <polygon
             style="fill:#404041"
             class="st12"
             points="35.3,332.5 132.6,164 229.9,332.5 "
             id="polygon1322" />
          <polygon
             style="fill:#808184"
             class="st5"
             points="236.1,369.2 333.3,200.7 430.6,369.2 "
             id="polygon1324" />
          <polygon
             style="fill:#59595c"
             class="st8"
             points="-51.9,428.8 -3.8,345.5 44.3,428.8 "
             id="polygon1326" />
          <polygon
             style="fill:#58595b"
             class="st13"
             points="123.2,104.8 171.3,21.5 219.4,104.8 "
             id="polygon1328" />
          <polygon
             style="fill:#221f1f"
             class="st11"
             points="283,90.2 331.1,6.9 379.2,90.2 "
             id="polygon1330" />
          <polygon
             style="fill:#808184"
             class="st5"
             points="-61.9,331.6 -37.8,289.9 -13.8,331.6 "
             id="polygon1332" />
          <polygon
             style="fill:#59595c"
             class="st8"
             points="132.5,621.6 156.5,579.9 180.6,621.6 "
             id="polygon1334" />
          <polygon
             style="fill:#59595c"
             class="st8"
             points="216.7,465.6 240.7,423.9 264.7,465.6 "
             id="polygon1336" />
          <polygon
             style="fill:#404041"
             class="st12"
             points="197.1,259.7 245.2,176.4 293.3,259.7 "
             id="polygon1338" />
          <polygon
             style="fill:#f1f1f2"
             class="st3"
             points="283,239.3 331.1,156 379.2,239.3 "
             id="polygon1340" />
          <polygon
             style="fill:#a7a8ab"
             class="st9"
             points="-49.5,78.8 -1.4,-4.5 46.7,78.8 "
             id="polygon1342" />
          <polygon
             style="fill:#a7a8ab"
             class="st9"
             points="-97.9,225.4 -49.8,142.1 -1.7,225.4 "
             id="polygon1344" />
          <polygon
             style="fill:#808184"
             class="st5"
             points="288.2,-20 312.2,-61.6 336.3,-20 "
             id="polygon1346" />
          <polygon
             style="fill:#bbbdbf"
             class="st14"
             points="187.2,116.2 211.3,74.6 235.3,116.2 "
             id="polygon1348" />
          <polygon
             style="fill:#ffffff"
             class="st15"
             points="231.9,63.8 238.3,52.8 244.7,63.8 "
             id="polygon1350" />
          <polygon
             style="fill:#6d6e70"
             class="st10"
             points="28.9,117.8 77,34.5 125.1,117.8 "
             id="polygon1352" />
          <polygon
             style="fill:#a6a8ab"
             class="st16"
             points="110.8,331.9 158.9,248.6 207,331.9 "
             id="polygon1354" />
          <polygon
             style="fill:#231f20"
             class="st4"
             points="107,263.1 125.1,231.7 143.1,263.1 "
             id="polygon1356" />
          <polygon
             style="fill:#a7a8ab"
             class="st9"
             points="214,285.3 238,243.6 262.1,285.3 "
             id="polygon1358" />
          <polygon
             style="fill:#a7a8ab"
             class="st9"
             points="208.6,167.2 232.6,125.6 256.7,167.2 "
             id="polygon1360" />
          <polygon
             style="fill:#f1f1f2"
             class="st3"
             points="226,102.8 274.1,19.5 322.1,102.8 "
             id="polygon1362" />
          <polygon
             style="fill:#a6a8ab"
             class="st16"
             points="1.2,143.6 49.3,60.3 97.4,143.6 "
             id="polygon1364" />
          <polygon
             style="fill:#59595c"
             class="st8"
             points="14,272.2 32.3,240.4 50.6,272.2 "
             id="polygon1366" />
          <polygon
             style="fill:#a6a8ab"
             class="st16"
             points="265.4,230.6 283.7,198.8 302,230.6 "
             id="polygon1368" />
          <polygon
             style="fill:#ffffff"
             class="st15"
             points="156.7,84.8 175,53.1 193.3,84.8 "
             id="polygon1370" />
          <polygon
             style="fill:#58595b"
             class="st13"
             points="156.7,282.1 175,250.3 193.3,282.1 "
             id="polygon1372" />
          <polygon
             style="fill:#59595c"
             class="st8"
             points="-19.7,88 -1.4,56.2 17,88 "
             id="polygon1374" />
          <polygon
             style="fill:#59595c"
             class="st8"
             points="238.4,360.2 256.7,328.5 275,360.2 "
             id="polygon1376" />
          <polygon
             style="fill:#808184"
             class="st5"
             points="307.5,135.6 325.8,103.8 344.1,135.6 "
             id="polygon1378" />
          <polygon
             style="fill:#bbbdbf"
             class="st14"
             points="45.3,233.1 63.6,201.3 82,233.1 "
             id="polygon1380" />
          <polygon
             style="fill:#f1f1f2"
             class="st3"
             points="72.3,295.1 90.6,263.3 109,295.1 "
             id="polygon1382" />
          <polygon
             style="fill:#f1f1f2"
             class="st3"
             points="27.6,167.7 46,136 64.3,167.7 "
             id="polygon1384" />
          <polygon
             style="fill:#59595c"
             class="st8"
             points="113.7,123.7 122.8,107.9 132,123.7 "
             id="polygon1386" />
          <polygon
             style="fill:#bbbdbf"
             class="st14"
             points="50.8,152.9 59.9,137.1 69.1,152.9 "
             id="polygon1388" />
          <polygon
             style="fill:#e6e7e8"
             class="st17"
             points="107.7,84.4 116.9,68.5 126.1,84.4 "
             id="polygon1390" />
          <polygon
             style="fill:#221f1f"
             class="st11"
             points="69,360.2 87.3,328.5 105.6,360.2 "
             id="polygon1392" />
          <polygon
             style="fill:#59595c"
             class="st8"
             points="112.2,419.2 130.5,387.4 148.8,419.2 "
             id="polygon1394" />
          <polygon
             style="fill:#59595c"
             class="st8"
             points="516.7,288.1 535.1,256.3 553.4,288.1 "
             id="polygon1396" />
          <polygon
             style="fill:#808184"
             class="st5"
             points="187.7,61.9 206,30.1 224.4,61.9 "
             id="polygon1398" />
          <polygon
             style="fill:#ffffff"
             class="st15"
             points="283.4,128.2 301.7,96.5 320,128.2 "
             id="polygon1400" />
          <polygon
             style="fill:#59595c"
             class="st8"
             points="316.6,622.1 325.8,606.2 335,622.1 "
             id="polygon1402" />
          <polygon
             style="fill:#a7a8ab"
             class="st9"
             points="262.4,411.2 271.6,395.4 280.7,411.2 "
             id="polygon1404" />
          <polygon
             style="fill:#59595c"
             class="st8"
             points="577.5,394.4 586.7,378.5 595.9,394.4 "
             id="polygon1406" />
          <polygon
             style="fill:#808184"
             class="st5"
             points="-97.4,339.9 -79.1,308.2 -60.7,339.9 "
             id="polygon1408" />
          <polygon
             style="fill:#808184"
             class="st5"
             points="277.7,315.5 296.1,283.7 314.4,315.5 "
             id="polygon1410" />
          <polygon
             style="fill:#a7a8ab"
             class="st9"
             points="286.9,268.6 296.1,252.7 305.2,268.6 "
             id="polygon1412" />
          <polygon
             style="fill:#d0d2d3"
             class="st18"
             points="210.1,128.5 221,109.6 231.9,128.5 "
             id="polygon1414" />
          <polygon
             style="fill:#808184"
             class="st5"
             points="94.9,-41.1 104,-57 113.2,-41.1 "
             id="polygon1416" />
          <polygon
             style="fill:#59595c"
             class="st8"
             points="386.7,121.9 405,90.2 423.4,121.9 "
             id="polygon1418" />
          <polygon
             style="fill:#59595c"
             class="st8"
             points="463,336.8 472.2,320.9 481.4,336.8 "
             id="polygon1420" />
        </g>
      </g>
    </g>
  </g>
  <g
     transform="translate(0,-26.06665)"
     id="g852"
     style="display:inline">
    <path
       style="font-style:normal;font-variant:normal;font-weight:normal;font-stretch:normal;font-size:79.0222px;line-height:1.25;font-family:Aller;-inkscape-font-specification:Aller;letter-spacing:0px;word-spacing:0px;display:inline;fill:#000000;fill-opacity:0.498039;stroke:none;stroke-width:0.264583;filter:url(#filter960)"
       d="m 166.89421,54.714922 c -2.45727,-0.03017 -4.84846,0.795637 -6.76342,2.335776 -4.79886,3.860001 -8.10041,7.600331 -10.4066,10.825694 -4.61248,-0.705779 -9.26827,-1.112279 -13.94178,-1.134814 -0.035,-1.73e-4 -0.0699,-1.73e-4 -0.1049,0 -4.6718,0.02365 -9.32596,0.430999 -13.93662,1.137399 -2.29362,-3.208179 -5.57178,-6.92509 -10.32857,-10.763168 -2.77221,-2.236436 -6.48338,-2.928566 -9.87537,-1.841749 -15.244848,4.885828 -29.267987,12.978361 -41.126165,23.732919 -2.639175,2.393701 -3.896908,5.954624 -3.346566,9.474876 0.947946,6.060951 2.535271,10.770735 4.172873,14.367085 -5.84046,7.33609 -10.561802,15.48745 -14.018785,24.20421 -3.94091,0.38487 -8.823148,1.37245 -14.555184,3.59306 -3.308834,1.28206 -5.755051,4.13692 -6.514848,7.60315 -1.707123,7.78975 -2.578945,15.73924 -2.600358,23.7138 -1.26e-4,0.0298 -1.26e-4,0.0596 0,0.0894 0.04621,7.98782 0.94559,15.94799 2.682524,23.74481 0.770081,3.45596 3.217223,6.29796 6.520531,7.57266 5.701393,2.19969 10.558688,3.18006 14.483356,3.56206 3.443158,8.72735 8.153094,16.89085 13.984677,24.24038 -1.630325,3.58963 -3.209597,8.28542 -4.15427,14.32109 -0.54966,3.51356 0.701907,7.0683 3.33158,9.46247 11.829648,10.76985 25.826408,18.88522 41.050205,23.80113 3.3921,1.09508 7.10758,0.40924 9.88518,-1.82469 4.79885,-3.86 8.10041,-7.60033 10.4066,-10.8257 4.61249,0.70578 9.26828,1.11229 13.94179,1.13482 0.035,1.7e-4 0.0699,1.7e-4 0.1049,0 4.6718,-0.0237 9.32596,-0.431 13.93662,-1.1374 2.29362,3.20817 5.57178,6.9251 10.32857,10.76317 2.77221,2.23643 6.48337,2.92856 9.87536,1.84174 15.24485,-4.88583 29.268,-12.97836 41.12618,-23.73291 2.63917,-2.3937 3.8969,-5.95463 3.34656,-9.47488 -0.94795,-6.06094 -2.53524,-10.7707 -4.17287,-14.36708 5.84046,-7.33609 10.5618,-15.48745 14.01878,-24.20421 3.94091,-0.38487 8.82316,-1.37245 14.55519,-3.59306 3.30884,-1.28206 5.75505,-4.13692 6.51485,-7.60315 1.70711,-7.78974 2.57893,-15.73924 2.60035,-23.7138 1.3e-4,-0.0298 1.3e-4,-0.0596 0,-0.0894 -0.0462,-7.98782 -0.94558,-15.94799 -2.68252,-23.74481 -0.77008,-3.45596 -3.21722,-6.29796 -6.52053,-7.57266 -5.70139,-2.19969 -10.55869,-3.18006 -14.48336,-3.56206 -3.44316,-8.72735 -8.15309,-16.89085 -13.98467,-24.24038 1.63031,-3.589611 3.20959,-8.285425 4.15427,-14.321092 0.54966,-3.51356 -0.70191,-7.068308 -3.33158,-9.462476 -11.82965,-10.769846 -25.82641,-18.885222 -41.05021,-23.801131 -1.00911,-0.325775 -2.06145,-0.498058 -3.12177,-0.511079 z m -0.13023,10.582301 c 13.78776,4.452197 26.46381,11.801849 37.17758,21.555791 -0.94532,6.039771 -2.58051,10.281994 -3.99408,13.024012 -0.15034,0.288724 -0.29714,0.559904 -0.43976,0.813394 -0.99841,1.7744 -1.78802,2.70283 -2.08876,3.02772 l -0.17674,0.16743 c 9.07382,9.61655 15.76935,21.22452 19.55023,33.89406 l 0.24908,-0.0744 c 0.4934,-0.11196 1.98872,-0.38241 4.59042,-0.26923 3.08023,0.14674 7.56993,0.8518 13.26999,3.05098 1.57307,7.06128 2.38746,14.27037 2.42931,21.50463 -0.0194,7.22226 -0.80882,14.42186 -2.35489,21.47672 -5.73585,2.22209 -10.25063,2.93148 -13.34441,3.07888 -0.32521,0.0142 -0.63314,0.0229 -0.92397,0.0258 -2.03589,0.0226 -3.23473,-0.19707 -3.66645,-0.29507 l -0.22117,-0.0656 c -3.80672,12.65978 -10.52502,24.25227 -19.61689,33.8491 l 0.21549,0.2036 c 0.34366,0.37132 1.32569,1.53137 2.52852,3.84111 1.41409,2.74295 3.04944,6.98761 3.99459,13.03073 -10.73961,9.74009 -23.43948,17.06882 -37.2463,21.49377 -4.7564,-3.83776 -7.61249,-7.37418 -9.28006,-9.9689 -0.17486,-0.27457 -0.33599,-0.53729 -0.48421,-0.78755 -1.03747,-1.75185 -1.44669,-2.89991 -1.57768,-3.32279 l -0.0677,-0.28423 c -6.40304,1.55524 -12.96575,2.35769 -19.55488,2.39107 -6.58929,-0.0318 -13.15235,-0.83266 -19.55591,-2.38641 l -0.0667,0.27957 c -0.14975,0.48328 -0.66302,1.91378 -2.06189,4.11034 -1.6756,2.60726 -4.55043,6.165 -9.34827,10.02419 -13.787737,-4.4522 -26.463767,-11.80186 -37.177524,-21.55579 0.945317,-6.03977 2.5805,-10.28199 3.994071,-13.02401 0.150349,-0.28872 0.297143,-0.55989 0.439766,-0.81339 0.998406,-1.7744 1.788031,-2.70283 2.088762,-3.02772 l 0.176733,-0.16743 c -9.07382,-9.61654 -15.769347,-21.22452 -19.550229,-33.89405 l -0.249079,0.0744 c -0.493403,0.11196 -1.988711,0.38241 -4.590418,0.26923 -3.080227,-0.14674 -7.569931,-0.85179 -13.269992,-3.05097 -1.573073,-7.06128 -2.387462,-14.27037 -2.429309,-21.50463 0.01939,-7.22226 0.808819,-14.42187 2.354895,-21.47673 5.735852,-2.22209 10.250625,-2.93147 13.344406,-3.07888 0.325216,-0.0141 0.633146,-0.0229 0.923973,-0.0259 2.035887,-0.0226 3.234722,0.19707 3.666445,0.29507 l 0.221173,0.0656 c 3.806732,-12.65975 10.525036,-24.25221 19.616891,-33.84901 l -0.215489,-0.2036 c -0.343662,-0.37132 -1.325693,-1.53138 -2.528528,-3.841115 -1.414076,-2.742959 -3.049432,-6.987606 -3.994589,-13.030729 10.739611,-9.740091 23.439476,-17.068819 37.246302,-21.49377 4.7564,3.837757 7.61248,7.374173 9.28005,9.968899 0.17487,0.274569 0.336,0.537292 0.48421,0.787551 1.03748,1.751846 1.44669,2.89991 1.57768,3.322794 l 0.0677,0.28422 c 6.40304,-1.55524 12.96575,-2.357693 19.55488,-2.391068 6.58929,0.03177 13.15235,0.832664 19.55591,2.386417 l 0.0667,-0.279569 c 0.14974,-0.483278 0.66302,-1.91379 2.06189,-4.110345 1.6756,-2.607257 4.55043,-6.165003 9.34827,-10.024192 z"
       id="path1740-0" />
  </g>
  <g
     style="display:inline"
     id="g1742"
     transform="translate(0,-26.06665)">
    <path
       style="font-style:normal;font-variant:normal;font-weight:normal;font-stretch:normal;font-size:79.0222px;line-height:1.25;font-family:Aller;-inkscape-font-specification:Aller;letter-spacing:0px;word-spacing:0px;fill:#ffffff;fill-opacity:1;stroke:none;stroke-width:1;stroke-dasharray:none"
       d="m 629.78125,106.54492 c -9.28731,-0.11403 -18.32488,3.00714 -25.5625,8.82813 -18.13742,14.58898 -30.61572,28.72566 -39.33203,40.91601 -17.433,-2.66751 -35.0297,-4.20389 -52.69336,-4.28906 -0.13216,-6.5e-4 -0.26432,-6.5e-4 -0.39648,0 -17.6572,0.0894 -35.24772,1.62897 -52.67383,4.29883 -8.6688,-12.1254 -21.05869,-26.17357 -39.03711,-40.67969 -10.47764,-8.45267 -24.50409,-11.06859 -37.32422,-6.96094 -57.61835,18.46612 -110.61919,49.05207 -155.4375,89.69922 -9.97483,9.04706 -14.72847,22.50566 -12.64844,35.81055 3.58279,22.90753 9.58213,40.70829 15.77149,54.30078 -22.07418,27.72695 -39.91862,58.53523 -52.98438,91.48047 -14.89478,1.45463 -33.34733,5.18722 -55.01172,13.58008 -12.50583,4.84559 -21.75137,15.63559 -24.623045,28.73632 -6.452118,29.44154 -9.747194,59.48689 -9.828125,89.62696 -4.76e-4,0.11263 -4.76e-4,0.22526 0,0.33789 0.174652,30.19018 3.573882,60.27584 10.138672,89.74414 2.910538,13.06191 12.159578,23.80334 24.644528,28.62109 21.54857,8.31379 39.90685,12.01911 54.74024,13.46289 13.01351,32.98526 30.81484,63.83944 52.85547,91.61719 -6.16186,13.56711 -12.13076,31.31497 -15.70118,54.12695 -2.07746,13.27959 2.65287,26.71486 12.5918,35.76368 44.71048,40.70494 97.61162,71.37721 155.15039,89.95703 12.82055,4.13888 26.8633,1.54674 37.36133,-6.89649 18.13739,-14.58897 30.61572,-28.72564 39.33203,-40.91601 17.433,2.66751 35.0297,4.20391 52.69336,4.28906 0.13216,6.5e-4 0.26432,6.5e-4 0.39648,0 17.6572,-0.0896 35.24772,-1.62897 52.67383,-4.29883 8.6688,12.12537 21.05869,26.1736 39.03711,40.67969 10.47764,8.45267 24.50409,11.06859 37.32422,6.96094 57.61833,-18.46613 110.61918,-49.05207 155.4375,-89.69922 9.97483,-9.04706 14.72847,-22.50566 12.64844,-35.81055 -3.5828,-22.90749 -9.58202,-40.70816 -15.77149,-54.30078 22.07418,-27.72695 39.91863,-58.53523 52.98438,-91.48047 14.89478,-1.45463 33.34735,-5.18722 55.01172,-13.58008 12.50583,-4.84559 21.75138,-15.63559 24.62305,-28.73632 6.45209,-29.44154 9.74716,-59.48689 9.82812,-89.62696 4.8e-4,-0.11263 4.8e-4,-0.22526 0,-0.33789 -0.17461,-30.19018 -3.57386,-60.27584 -10.13867,-89.74414 -2.91054,-13.06191 -12.15958,-23.80334 -24.64453,-28.62109 -21.54856,-8.31379 -39.90684,-12.01911 -54.74024,-13.46289 -13.01352,-32.98526 -30.81485,-63.83944 -52.85547,-91.61719 6.16181,-13.56702 12.13073,-31.31498 15.70118,-54.12695 2.07746,-13.27959 -2.65287,-26.71486 -12.5918,-35.76368 -44.71049,-40.70493 -97.61162,-71.37722 -155.15039,-89.95703 -3.81398,-1.23128 -7.79133,-1.88243 -11.79883,-1.93164 z m -0.49219,39.9961 c 52.1112,16.8272 100.02067,44.60541 140.51367,81.4707 -3.57285,22.82748 -9.7531,38.86108 -15.0957,49.22461 -0.56825,1.09123 -1.12307,2.11616 -1.66211,3.07422 -3.77352,6.70641 -6.75787,10.21545 -7.89453,11.44336 l -0.66797,0.63281 c 34.29475,36.346 59.60068,80.21866 73.89063,128.10351 l 0.9414,-0.28125 c 1.86482,-0.42315 7.51642,-1.44534 17.34961,-1.01757 11.64182,0.55462 28.61077,3.21939 50.1543,11.53125 5.94547,26.68829 9.02348,53.93527 9.18164,81.27734 -0.0733,27.29673 -3.05695,54.50784 -8.90039,81.17188 -21.6788,8.39843 -38.74251,11.07958 -50.43555,11.63671 -1.22914,0.0537 -2.39298,0.0864 -3.49218,0.0977 -7.69467,0.0853 -12.22573,-0.74484 -13.85743,-1.11523 l -0.83593,-0.24805 C 804.09092,651.391 778.6989,695.20512 744.33594,731.4766 l 0.81445,0.76953 c 1.29887,1.40342 5.01051,5.78786 9.55664,14.51758 5.34457,10.36705 11.52542,26.40987 15.09766,49.25 -40.59066,36.81294 -88.59016,64.51207 -140.77344,81.23629 -17.97694,-14.50492 -28.77159,-27.8709 -35.07422,-37.67773 -0.66092,-1.03775 -1.26991,-2.0307 -1.83008,-2.97657 -3.92118,-6.62116 -5.46781,-10.96027 -5.96289,-12.55859 l -0.25586,-1.07422 C 561.70773,828.84096 536.90379,831.87386 512,832 c -24.90441,-0.12008 -49.70966,-3.14708 -73.91211,-9.01953 l -0.25195,1.05664 c -0.56595,1.82657 -2.5059,7.2332 -7.79297,15.53516 -6.33297,9.8542 -17.19846,23.30079 -35.33203,37.88671 -52.1112,-16.8272 -100.02067,-44.60541 -140.51367,-81.4707 3.57285,-22.82749 9.75307,-38.86108 15.0957,-49.22461 0.56825,-1.09122 1.12306,-2.11614 1.66211,-3.07422 3.7735,-6.70639 6.75791,-10.21543 7.89453,-11.44336 l 0.66797,-0.63281 c -34.29475,-36.346 -59.60068,-80.21866 -73.89063,-128.10351 l -0.9414,0.28125 c -1.86483,0.42315 -7.51639,1.44534 -17.34961,1.01757 -11.6418,-0.55462 -28.61076,-3.21939 -50.1543,-11.53125 C 131.23617,566.58905 128.15816,539.34207 128,512 c 0.0733,-27.29673 3.05695,-54.50784 8.90039,-81.17188 21.67881,-8.39843 38.74252,-11.07958 50.43555,-11.63671 1.22916,-0.0533 2.39299,-0.0864 3.49218,-0.0977 7.69469,-0.0853 12.22572,0.74484 13.85743,1.11523 l 0.83593,0.24805 C 219.90908,372.609 245.3011,328.79488 279.66406,292.5234 l -0.81445,-0.76953 c -1.29888,-1.40342 -5.01049,-5.78788 -9.55664,-14.51758 -5.34454,-10.36709 -11.52541,-26.40985 -15.09766,-49.25 40.59066,-36.81294 88.59016,-64.51207 140.77344,-81.23629 17.97694,14.50491 28.77159,27.87089 35.07422,37.67773 0.66092,1.03774 1.26991,2.03071 1.83008,2.97657 3.92118,6.62115 5.46781,10.96029 5.96289,12.55859 l 0.25586,1.07422 C 462.29227,195.15904 487.09621,192.12614 512,192 c 24.90441,0.12008 49.70966,3.14708 73.91211,9.01953 l 0.25195,-1.05664 c 0.56595,-1.82656 2.5059,-7.23322 7.79297,-15.53516 6.33297,-9.8542 17.19846,-23.3008 35.33203,-37.88671 z"
       id="path1740"
       transform="matrix(0.26458333,0,0,0.26458333,0,26.06665)" />
  </g>
  <g
     id="layer2"
     style="display:inline">
    <g
       aria-label="oto!"
       id="text4460"
       style="font-weight:bold;font-size:66.1458px;font-family:Aller;-inkscape-font-specification:'Aller, Bold';fill:#ffffff;stroke:#000000;stroke-width:0;filter:url(#filter7379)">
      <path
         d="m 87.296845,157.08295 q -4.167185,0 -7.276037,-1.32292 -3.042707,-1.38906 -5.093227,-3.77031 -1.984374,-2.44739 -3.042706,-5.68854 -0.992187,-3.24114 -0.992187,-7.01145 0,-3.77031 0.992187,-7.0776 1.058332,-3.30729 3.042706,-5.68854 2.05052,-2.44739 5.093227,-3.83646 3.108852,-1.38906 7.276037,-1.38906 4.167186,0 7.276038,1.38906 3.108853,1.38907 5.159372,3.83646 2.050525,2.38125 3.042705,5.68854 0.99219,3.30729 0.99219,7.0776 0,3.77031 -0.99219,7.01145 -0.99218,3.24115 -3.042705,5.68854 -2.050519,2.38125 -5.159372,3.77031 -3.108852,1.32292 -7.276038,1.32292 z m 0,-7.14375 q 3.704165,0 5.291664,-2.71197 1.653645,-2.77813 1.653645,-7.9375 0,-5.15937 -1.653645,-7.87135 -1.587499,-2.77812 -5.291664,-2.77812 -3.638018,0 -5.291663,2.77812 -1.5875,2.71198 -1.5875,7.87135 0,5.15937 1.5875,7.9375 1.653645,2.71197 5.291663,2.71197 z"
         id="path1405" />
      <path
         d="m 112.10152,129.23557 h -4.29948 l -0.33073,-1.32292 12.36926,-15.80884 h 1.52136 v 9.98801 h 8.00364 q 0.19844,0.99219 0.26458,1.78594 0.0662,0.79375 0.0662,1.65364 0,0.92605 -0.0662,1.78594 -0.0661,0.8599 -0.26458,1.91823 h -8.00364 v 13.4276 q 0,2.05052 0.33073,3.30729 0.33073,1.25677 0.92604,1.98437 0.66146,0.7276 1.5875,0.99219 0.92604,0.26458 2.18281,0.26458 0.99219,0 1.91823,-0.13229 0.99218,-0.19844 1.71979,-0.33073 0.46302,1.25677 0.66146,2.64583 0.19843,1.32292 0.19843,2.38125 0,0.7276 -0.0661,1.25677 0,0.46302 -0.0662,0.92604 -3.04271,0.7276 -6.28385,0.7276 -6.01927,0 -9.19427,-2.77812 -3.17499,-2.84427 -3.17499,-9.19426 z"
         id="path1407" />
      <path
         d="m 150.99521,157.08295 q -4.16719,0 -7.27604,-1.32292 -3.04271,-1.38906 -5.09323,-3.77031 -1.98437,-2.44739 -3.04271,-5.68854 -0.99218,-3.24114 -0.99218,-7.01145 0,-3.77031 0.99218,-7.0776 1.05834,-3.30729 3.04271,-5.68854 2.05052,-2.44739 5.09323,-3.83646 3.10885,-1.38906 7.27604,-1.38906 4.16718,0 7.27603,1.38906 3.10886,1.38907 5.15938,3.83646 2.05052,2.38125 3.0427,5.68854 0.99219,3.30729 0.99219,7.0776 0,3.77031 -0.99219,7.01145 -0.99218,3.24115 -3.0427,5.68854 -2.05052,2.38125 -5.15938,3.77031 -3.10885,1.32292 -7.27603,1.32292 z m 0,-7.14375 q 3.70416,0 5.29166,-2.71197 1.65364,-2.77813 1.65364,-7.9375 0,-5.15937 -1.65364,-7.87135 -1.5875,-2.77812 -5.29166,-2.77812 -3.63802,0 -5.29167,2.77812 -1.5875,2.71198 -1.5875,7.87135 0,5.15937 1.5875,7.9375 1.65365,2.71197 5.29167,2.71197 z"
         id="path1409" />
      <path
         d="m 175.00613,108.73037 q 2.57968,-0.39687 5.09322,-0.39687 2.57969,0 5.15938,0.39687 l -0.66146,32.3453 q -2.31511,0.39687 -4.43177,0.39687 -2.24896,0 -4.49792,-0.39687 z m 0.26458,47.55883 q -0.39687,-2.44739 -0.39687,-4.82864 0,-2.38125 0.39687,-4.89479 2.44739,-0.39688 4.82864,-0.39688 2.38125,0 4.89479,0.39688 0.39688,2.51354 0.39688,4.82864 0,2.4474 -0.39688,4.89479 -2.51354,0.39687 -4.82864,0.39687 -2.4474,0 -4.89479,-0.39687 z"
         id="path1411" />
    </g>
  </g>
  <style
     id="style1281"
     type="text/css">
	.st0{fill:#FF66AA;}
	.st1{opacity:0.15;}
	.st2{clip-path:url(#SVGID_2_);}
	.st3{fill:#F1F1F2;}
	.st4{fill:#231F20;}
	.st5{fill:#808184;}
	.st6{fill:#929497;}
	.st7{fill:#636466;}
	.st8{fill:#59595C;}
	.st9{fill:#A7A8AB;}
	.st10{fill:#6D6E70;}
	.st11{fill:#221F1F;}
	.st12{fill:#404041;}
	.st13{fill:#58595B;}
	.st14{fill:#BBBDBF;}
	.st15{fill:#FFFFFF;}
	.st16{fill:#A6A8AB;}
	.st17{fill:#E6E7E8;}
	.st18{fill:#D0D2D3;}
</style>
</svg>
